<?xml version="1.0" encoding="iso-8859-1"?>
<!-- Generator: Adobe Illustrator 18.1.1, SVG Export Plug-In . SVG Version: 6.00 Build 0)  -->
<svg version="1.1" id="Capa_1" xmlns="http://www.w3.org/2000/svg" xmlns:xlink="http://www.w3.org/1999/xlink" x="0px" y="0px"
	 viewBox="0 0 450.546 450.546" style="enable-background:new 0 0 450.546 450.546;" xml:space="preserve">
<g>
	<g>
		<path style="fill:#010002;" d="M88.93,317.828c-6.396,0-12.393-2.488-16.892-6.999L6.993,245.76
			c-2.166-2.112-3.974-4.821-5.185-7.781C0.609,235.044,0,231.983,0,228.886c0-3.055,0.591-6.068,1.742-8.956
			c1.331-3.186,3.085-5.812,5.4-8.079l64.914-64.92c9.028-9.004,24.679-9.01,33.731-0.042c9.308,9.344,9.32,24.494,0.06,33.796
			l-24.333,24.327h222.266c13.169,0,23.879,10.711,23.879,23.879c0,13.163-10.711,23.867-23.879,23.867H81.513l24.303,24.297
			c9.261,9.326,9.267,24.47,0.03,33.749C101.294,315.346,95.297,317.828,88.93,317.828z"/>
	</g>
	<g>
		<polygon style="fill:#010002;" points="450.546,387.927 125.239,387.927 125.239,258.726 137.172,258.726 137.172,375.993 
			438.613,375.993 438.613,74.553 137.172,74.553 137.172,199.046 125.239,199.046 125.239,62.619 450.546,62.619 		"/>
	</g>
</g>
<g>
</g>
<g>
</g>
<g>
</g>
<g>
</g>
<g>
</g>
<g>
</g>
<g>
</g>
<g>
</g>
<g>
</g>
<g>
</g>
<g>
</g>
<g>
</g>
<g>
</g>
<g>
</g>
<g>
</g>
</svg>
