<?xml version="1.0" encoding="utf-8"?>
<!-- Generator: Adobe Illustrator 19.2.1, SVG Export Plug-In . SVG Version: 6.00 Build 0)  -->
<svg version="1.1" id="layer" xmlns="http://www.w3.org/2000/svg" xmlns:xlink="http://www.w3.org/1999/xlink" x="0px" y="0px"
	 viewBox="0 0 652 652" style="enable-background:new 0 0 652 652;" xml:space="preserve">
<style type="text/css">
	.st0{fill:#EB0000;}
	.st1{fill:#FFFFFF;}
</style>
<polygon class="st0" points="319.2,298.8 280.8,490.3 588.1,490.3 625.6,298.8 "/>
<path class="st1" d="M416.6,342.6h-41.3l-26.8,126.2h41.3L416.6,342.6z M428.2,288.6h-41.3l-6.6,31.7h41.3L428.2,288.6z
	 M440.3,342.6l-26.3,126.2h41.3l14.7-69.4c3.3-15.4,8.8-26.3,27.3-26.3c13.2,0,15.5,6,13.2,18.3l-16.8,77.5H535l18.5-87.2
	c5.8-27.2-4.1-40.4-32.1-40.4c-19.7,0-32.9,5.1-43,25h-1.6l5-23.6L440.3,342.6L440.3,342.6z"/>
<path d="M105.2,161.7H63.9L25.6,341.9h41.3L105.2,161.7z M291.4,310.2c-17.8,0-19.7-5.3-14.5-31.3c6.2-29.1,8.9-32.9,28.2-32.9
	c17.3,0,20.9,4.3,14.9,32.9C315.3,300.5,311.7,310.2,291.4,310.2 M224.8,353.1c-7,39.9,4.9,44.7,49.6,44.7
	c48.5,0,64.6-14.4,74.6-61.5l25.5-120.7h-41.1L330,238h-1.6c-0.9-19.7-13.2-23.8-30.7-23.8c-43.5,0-53.6,23.8-62.3,64.6
	c-7.6,35.8-9.5,62.9,35.2,62.9c15.9,0,30.1-5.1,38.8-20.7h1.4l-5.6,26.3c-3.8,17.6-8.2,20.4-25.9,20.4c-4.2,0.2-8.3-0.5-12.2-2.2
	c-3.2-1.9-4.5-5.8-3-12.7h-39.5L224.8,353.1z"/>
<path d="M180.7,278.9c-5.8,27.4-8.9,32.9-28.1,32.9s-21.2-5.3-15.4-32.9c5.8-27.6,9.4-32.9,29.4-32.9S186.3,251.5,180.7,278.9
	 M172.6,214.3c-52.7,0-65.8,13.2-76.7,64.6c-10.7,50.5-2.4,64.4,49.2,64.4s65.8-12.5,76.9-64.4C233.4,225.6,225.5,214.3,172.6,214.3
	"/>
</svg>
